<svg version="1" xmlns="http://www.w3.org/2000/svg" width="400" height="400" viewBox="0 0 300.000000 300.000000"><path d="M153.5 6.1c-2.7.3-7.1.9-9.7 1.3-17.9 2.5-42.8 14.1-59.4 27.7C66.3 50 47.9 72.9 36.3 95c-21.7 41.4-23.8 87.1-5.7 123.5C41.4 240 62 260.9 83.7 272.3c6.5 3.4 24.1 9.8 31 11.2 18.2 3.9 38 4.3 44.8.9 5.1-2.4 5.8-5.6 1.8-7.2-2.9-1.2-6-1.8-13.4-2.7-18.3-2.3-28.5-5.2-42.4-12-13-6.4-21.6-12.7-31.1-22.7-29.5-31.2-36.8-74-19.8-115.8 16.2-39.9 50.1-72.9 83.9-81.7 27.2-7.1 58.4-1.5 80.5 14.5 5.5 3.9 15.2 14.5 18.9 20.6 3.7 6.3 8.7 20 9.7 26.7 2.1 14.5.2 32.3-4.9 46.4-9.7 26.8-35 51.7-59.8 58.9-29.1 8.4-58.3-7.4-64.8-35.1-2.6-10.8-1.4-27 2.8-37.8 6.4-16.5 19.2-30.7 32.3-35.6 10.5-3.9 18.3-3.2 23.1 2.1 5.9 6.5 1.6 17.1-10.8 26.6-1.9 1.4-4.8 4.7-6.4 7.4-2.6 4.2-2.8 4.9-1.4 6.3 1.8 1.8 1.1 4.6-2.1 8.5-2.4 2.8-6.6 15.3-6.6 19.4 0 3.3 3.4 8.5 6.9 10.3 8.9 4.5 21.6-1.2 37.6-17 20.4-20.1 23.8-59.6 7-80.1-19.3-23.5-63.8-18.4-89.3 10.2-13.1 14.7-22.8 32.7-26.7 49.8-2.3 10.2-2.7 12.7-2.7 22.1 0 26.2 11.7 48.3 33.7 63.2 9.5 6.4 20.5 11.5 30 13.9 1.7.4 3.7.9 4.5 1.1.8.2 6.7.6 13 .8 13.4.4 24-1.4 36.3-6.4 29.3-11.7 57.3-38.5 72.3-69.1 5.2-10.6 9.5-22.9 11-31.8.2-1.2.7-3.4 1-5 .3-1.5.7-8.1.9-14.7.7-24.2-5.4-43.5-20.5-64.7-17.3-24.3-43.4-40.7-73.6-46.4-9.3-1.7-28.8-2.4-36.9-1.3zm29 142.9c1.5 2.4-2.6 6.6-9.7 9.8-1.5.7 1.3-6.2 3.4-8.5 2.2-2.4 5.2-3 6.3-1.3z"/></svg>